<svg xmlns="http://www.w3.org/2000/svg" xmlns:xlink="http://www.w3.org/1999/xlink" width="1734" height="393" viewBox="0 0 1734 393"><defs><filter id="a" x="1521" y="33" width="213" height="286" filterUnits="userSpaceOnUse"><feOffset dy="3" input="SourceAlpha"/><feGaussianBlur stdDeviation="3" result="b"/><feFlood flood-opacity="0.659"/><feComposite operator="in" in2="b"/><feComposite in="SourceGraphic"/></filter><filter id="c" x="1509" y="40" width="215" height="287" filterUnits="userSpaceOnUse"><feOffset dy="3" input="SourceAlpha"/><feGaussianBlur stdDeviation="3" result="d"/><feFlood flood-opacity="0.659"/><feComposite operator="in" in2="d"/><feComposite in="SourceGraphic"/></filter><filter id="e" x="0" y="0" width="1527" height="393" filterUnits="userSpaceOnUse"><feOffset dy="3" input="SourceAlpha"/><feGaussianBlur stdDeviation="3" result="f"/><feFlood flood-color="#290c63" flood-opacity="0.659"/><feComposite operator="in" in2="f"/><feComposite in="SourceGraphic"/></filter></defs><g transform="translate(9 6)"><g transform="translate(1509.152 33)"><g transform="matrix(1, 0, 0, 1, -1518.15, -39)" filter="url(#a)"><rect width="195" height="268" rx="5" transform="translate(1530 39)" fill="#290c63"/></g><rect width="192" height="268" rx="5" transform="translate(7.848 4)" fill="#fff"/><g transform="matrix(1, 0, 0, 1, -1518.15, -39)" filter="url(#c)"><g transform="translate(1518 46)" fill="#821385" stroke="#290c63" stroke-width="2"><rect width="197" height="269" rx="5" stroke="none"/><rect x="1" y="1" width="195" height="267" rx="4" fill="none"/></g></g><g transform="translate(40.848 53)" fill="#fff" stroke="#290c63" stroke-width="1"><rect width="114" height="52" rx="2" stroke="none"/><rect x="0.5" y="0.5" width="113" height="51" rx="1.5" fill="none"/></g></g><g transform="matrix(1, 0, 0, 1, -9, -6)" filter="url(#e)"><text transform="translate(9 6)" fill="#fff" font-size="282" font-family="NirmalaUI-Bold, Nirmala UI" font-weight="700" letter-spacing="-0.075em"><tspan x="0" y="304">Bookworms!</tspan></text></g></g></svg>